<?xml version="1.0" encoding="utf-8"?>
<!-- Generator: Adobe Illustrator 26.0.3, SVG Export Plug-In . SVG Version: 6.00 Build 0)  -->
<svg version="1.0" id="katman_1" xmlns="http://www.w3.org/2000/svg" xmlns:xlink="http://www.w3.org/1999/xlink" x="0px" y="0px"
	 viewBox="0 0 800 600" style="enable-background:new 0 0 800 600;" xml:space="preserve">
<style type="text/css">
	.st0{clip-path:url(#SVGID_00000095332651426566422430000009853067118954721436_);}
	.st1{fill:#1D1D1B;}
	.st2{fill:#ED9D23;}
	.st3{fill:#EF3F2C;}
	.st4{fill:#F1E902;}
	.st5{fill:#2B378A;}
	.st6{fill:#35B34A;}
	.st7{fill:#742A84;}
</style>
<g>
	<defs>
		<rect id="SVGID_1_" x="82.9" y="123" width="633.8" height="353.1"/>
	</defs>
	<clipPath id="SVGID_00000170274429792603486450000016557317286264000648_">
		<use xlink:href="#SVGID_1_"  style="overflow:visible;"/>
	</clipPath>
	<g style="clip-path:url(#SVGID_00000170274429792603486450000016557317286264000648_);">
		<path class="st1" d="M155.9,474.5v-98.7h-15.2v36.9c0,0.5-0.3,1-0.9,1.2c-0.5,0.2-1.1,0-1.4-0.3c-5.1-6-13.1-9.5-22-9.5
			c-18.7,0-33.4,15.8-33.4,36c0,9.9,3.4,19.1,9.6,25.7c6.2,6.7,14.7,10.3,23.9,10.3c8.7,0,16.7-3.6,22-9.9c0.3-0.4,1-0.5,1.4-0.4
			c0.5,0.2,0.9,0.7,0.9,1.2v7.3h15.1V474.5z M119.9,462.3c-12.1,0-21.6-9.7-21.6-22.2c0-12.5,9.5-22.2,21.6-22.2
			c12.1,0,21.6,9.8,21.6,22.2C141.4,452.6,131.9,462.3,119.9,462.3z M237.1,474.5v-68.8h-15v6.9c0,0.5-0.3,1-0.9,1.2
			c-0.5,0.2-1.1,0-1.4-0.4c-5.1-6.1-12.9-9.4-22-9.4c-18.7,0-33.5,15.9-33.5,36s14.7,36,33.5,36c8.7,0,16.8-3.6,22-10
			c0.3-0.4,1-0.5,1.4-0.4c0.5,0.2,0.9,0.7,0.9,1.2v7.5h15V474.5z M201.1,462.3c-12.1,0-21.6-9.7-21.6-22.2
			c0-12.5,9.5-22.2,21.6-22.2c12.1,0,21.6,9.8,21.6,22.2C222.7,452.6,213.2,462.3,201.1,462.3z M365.8,474.5v-68.8h-15v6.9
			c0,0.5-0.3,1-0.9,1.2c-0.5,0.2-1.1,0-1.4-0.4c-5.1-6.1-12.9-9.4-22-9.4c-18.7,0-33.5,15.9-33.5,36s14.7,36,33.5,36
			c8.7,0,16.8-3.6,22-10c0.3-0.4,1-0.5,1.4-0.4c0.5,0.2,0.9,0.7,0.9,1.2v7.5h15V474.5z M329.9,462.3c-12.1,0-21.6-9.7-21.6-22.2
			c0-12.5,9.5-22.2,21.6-22.2c12.1,0,21.6,9.8,21.6,22.2C351.5,452.6,341.9,462.3,329.9,462.3z M393.4,466.3c0.1,0,0.3-0.1,0.4-0.1
			c0.3,0,0.8,0.2,1,0.4c5.1,6,13.1,9.5,22,9.5c18.7,0,33.5-15.9,33.5-36c0-9.9-3.4-19.1-9.6-25.7c-6.2-6.7-14.7-10.3-23.9-10.3
			c-8.7,0-16.7,3.6-22,9.9c-0.3,0.4-0.9,0.5-1.4,0.4c-0.5-0.2-0.9-0.7-0.9-1.2v-37.3h-15.2v98.7h15.2v-6.9
			C392.5,466.9,392.9,466.5,393.4,466.3z M391.9,440.1c0-12.5,9.5-22.2,21.6-22.2s21.6,9.8,21.6,22.2c0,12.5-9.5,22.2-21.6,22.2
			C401.3,462.3,391.9,452.6,391.9,440.1z M473.9,444.3v30.2h-15.2v-68.8h15v8.4c0,0.5,0.4,1.1,1,1.2c0.5,0.1,1.2-0.1,1.4-0.5
			c3.8-6.5,11.2-10.5,19-10.5c1,0,2.1,0.1,2.5,0.2V420c-0.9-0.2-2.3-0.3-3.7-0.3C481.6,419.8,473.9,429.1,473.9,444.3z M522.6,405.7
			v68.7h-15.3v-68.7H522.6z M524,385.2c0,5.1-4.2,9.3-9.3,9.3s-9.3-4.2-9.3-9.3s4.2-9.3,9.3-9.3S524,380.1,524,385.2z M595.9,414.9
			l-9.6,9.1c-5.5-4.1-11.2-6-17.2-6c-12.7,0-22.2,9.5-22.2,22.1c0,12.6,9.5,22.1,22.2,22.1c5.6,0,11.3-2,17.5-6l8.7,9.1
			c-12.5,9.2-19.2,10.8-27.7,10.8c-10.3,0-19.6-3.6-26.1-10.2c-6.5-6.6-10.1-15.7-10.1-25.9c0-20.9,15.3-36,36.4-36
			C574.4,404.1,584.7,405.1,595.9,414.9z M619.1,446.7c-0.2,0.2-0.4,0.5-0.4,1v26.7h-15.2v-98.7h15.2v54c0,0.5,0.3,1,0.8,1.2
			c0.5,0.2,1.1,0.1,1.4-0.3l24.9-25h18.5l-28.9,28.9c-0.4,0.4-0.5,1.2-0.1,1.8l31.4,38h-18.7l-24.3-30.1c-0.2-0.3-0.5-0.4-1-0.4
			h-0.1c-0.3,0-0.7,0.1-0.9,0.3L619.1,446.7z M665.2,459.2l12.3-6.5c2.6,6.5,8.1,10.4,14.2,10.4c4.6,0,10-2.1,10-7.9
			c0-3.9-2.4-6.2-8.4-8.1l-8.4-2.7c-11.7-3.7-17.4-10.2-17.4-19.7c0-12.1,9.9-20.8,23.6-20.8c10.7,0,20.2,5.7,24.6,15l-12.2,6.6
			c-2.8-5.8-7.3-9.1-12.4-9.1c-5.3,0-9,2.9-9,7c0,3.6,2.7,6.2,8.2,8.1l8.3,2.7c12.1,3.9,18,10.4,18,19.8c0,14.4-12.6,21.9-25.1,21.9
			C679.4,476.1,669.4,469.7,665.2,459.2z M257.1,451.4v-32c0-0.8-0.5-1.3-1.3-1.3h-10.6v-12.4h10.6c0.8,0,1.3-0.5,1.3-1.3v-19.9
			h15.1v19.9c0,0.8,0.5,1.3,1.3,1.3h14.8v12.4h-14.8c-0.8,0-1.3,0.5-1.3,1.3v28.3c0,13.3,4.7,14.4,10.8,14.4c2.2,0,5.6-0.2,7.7-0.5
			v13.1c-2.4,0.3-6.8,0.8-11.5,0.8C273.1,475.5,257.1,475.5,257.1,451.4z"/>
		<path class="st2" d="M332.9,247.2v10.9l30.9,17.1v-10.5L332.9,247.2z"/>
		<path class="st2" d="M332.9,187.3v10.9l30.9,17.1v-10.5L332.9,187.3z"/>
		<path class="st2" d="M363.8,245.3v-10.5l-30.9-17.6v10.9L363.8,245.3z"/>
		<path class="st2" d="M332.9,277.2v10.9l30.9,17.6v-10.9L332.9,277.2z"/>
		<path class="st2" d="M363.8,151.2v-10.9l-30.9,17.6v10.9L363.8,151.2z"/>
		<path class="st3" d="M316.3,177.8l16.6-9v-10.9L302,175v5.7l30.9,17.6v-10.9L316.3,177.8z"/>
		<path class="st3" d="M306.3,262.4l-4.3,2.4v6.2l30.9,17.1v-10.9L306.3,262.4z"/>
		<path class="st3" d="M312,235.3v-19l20.9,11.9v-10.9l-26.6-14.7l-4.3,1.9v36.1l30.9,17.6v-10.9L312,235.3z"/>
		<path class="st4" d="M363.8,204.9v10.5l30.9,17.6V222L363.8,204.9z"/>
		<path class="st4" d="M394.7,262.9V252l-30.9-17.1v10.5L394.7,262.9z"/>
		<path class="st4" d="M363.8,294.7v10.9l30.9,17.1v-10.9L363.8,294.7z"/>
		<path class="st4" d="M394.7,134.1v-10.9l-30.9,17.1v10.9L394.7,134.1z"/>
		<path class="st4" d="M363.8,264.8v10.5l30.9,17.6v-10.9L363.8,264.8z"/>
		<path class="st5" d="M456.4,168.8v-10.9l-30.9-17.6v10.9L456.4,168.8z"/>
		<path class="st5" d="M425.5,264.8v10.5l30.9-17.1v-10.9L425.5,264.8z"/>
		<path class="st5" d="M425.5,294.7v10.9l30.9-17.6v-10.9L425.5,294.7z"/>
		<path class="st5" d="M456.4,228.2v-10.9l-30.9,17.6v10.5L456.4,228.2z"/>
		<path class="st5" d="M425.5,204.9v10.5l30.9-17.1v-10.9L425.5,204.9z"/>
		<path class="st6" d="M394.7,311.8v10.9l30.9-17.1v-10.9L394.7,311.8z"/>
		<path class="st6" d="M425.5,151.2v-10.9l-30.9-17.1v10.9L425.5,151.2z"/>
		<path class="st6" d="M394.7,281.9v10.9l30.9-17.6v-10.5L394.7,281.9z"/>
		<path class="st6" d="M425.5,245.3v-10.5L394.7,252v10.9L425.5,245.3z"/>
		<path class="st6" d="M394.7,222v10.9l30.9-17.6v-10.5L394.7,222z"/>
		<path class="st7" d="M483,232.5l-26.6,14.7v10.9l20.9-11.9v19l-20.9,11.9v10.9l30.4-17.1v-36.1L483,232.5z"/>
		<path class="st7" d="M458.8,170.2l6.2-3.3v-4.3l-8.6-4.8v10.9L458.8,170.2z"/>
		<path class="st7" d="M486.8,210.6V175l-4.3-2.4l-26.1,14.7v10.9l20.9-11.9v19l-20.9,11.9v10.9L486.8,210.6z"/>
	</g>
</g>
</svg>
